<?xml version="1.0" encoding="UTF-8" standalone="no"?>
<svg xmlns:xlink="http://www.w3.org/1999/xlink" height="100.0px" width="100.0px" xmlns="http://www.w3.org/2000/svg">
  <g transform="matrix(1, 0, 0, 1, 0.0, 0.0)">
    <path d="M0.0 41.95 L0.0 0.0 38.95 0.0 52.05 0.0 100.0 0.0 100.0 41.95 100.0 55.05 100.0 100.0 52.05 100.0 38.95 100.0 0.0 100.0 0.0 55.05 0.0 41.95 M29.3 12.85 L29.3 10.55 27.1 10.7 27.2 6.1 24.75 6.7 24.7 10.95 23.1 11.0 23.1 13.2 24.6 13.2 24.65 18.5 Q24.65 20.65 25.15 21.7 25.6 22.75 26.85 23.05 L27.55 23.15 Q28.4 23.15 29.35 22.6 L29.3 20.5 28.4 20.65 Q27.1 20.65 27.1 18.75 L27.1 18.4 27.1 13.05 29.3 12.85 M11.75 9.7 Q12.4 9.7 12.85 9.25 L13.3 8.1 Q13.3 7.45 12.85 7.0 12.4 6.5 11.75 6.5 11.05 6.5 10.6 7.0 10.15 7.45 10.15 8.1 10.15 8.75 10.6 9.25 11.05 9.7 11.75 9.7 M9.1 22.95 L8.95 11.15 9.0 6.55 6.6 6.7 6.65 16.85 6.6 23.15 9.1 22.95 M12.85 13.95 L12.85 11.15 10.45 11.25 10.5 18.1 10.5 23.0 13.0 22.8 12.85 13.95 M19.3 15.1 L21.6 14.85 21.6 14.35 21.3 12.25 Q20.85 11.15 19.4 10.75 L18.15 10.6 16.6 10.85 Q15.2 11.35 14.8 13.1 L14.65 14.25 Q14.65 15.3 15.2 16.15 16.0 17.35 17.75 17.95 19.45 18.5 19.45 19.5 L19.45 19.6 Q19.35 20.65 18.2 20.75 L18.1 20.75 Q17.0 20.75 16.9 18.9 L14.5 19.3 Q14.75 22.15 16.2 22.8 L17.95 23.15 19.3 22.95 Q21.0 22.55 21.55 21.1 L21.85 19.4 21.7 18.25 Q21.4 16.85 19.95 16.45 18.5 16.0 17.75 15.45 17.1 14.95 17.1 14.15 L17.15 13.9 Q17.25 13.0 18.35 13.0 19.35 13.0 19.35 14.65 L19.3 15.1" fill="#ffffff" fill-opacity="0.2" fill-rule="evenodd" stroke="none"/>
    <path d="M19.3 15.1 L19.35 14.65 Q19.35 13.0 18.35 13.0 17.25 13.0 17.15 13.9 L17.1 14.15 Q17.1 14.95 17.75 15.45 18.5 16.0 19.95 16.45 21.4 16.85 21.7 18.25 L21.85 19.4 21.55 21.1 Q21.0 22.55 19.3 22.95 L17.95 23.15 16.2 22.8 Q14.75 22.15 14.5 19.3 L16.9 18.9 Q17.0 20.75 18.1 20.75 L18.2 20.75 Q19.35 20.65 19.45 19.6 L19.45 19.5 Q19.45 18.5 17.75 17.95 16.0 17.35 15.2 16.15 14.65 15.3 14.65 14.25 L14.8 13.1 Q15.2 11.35 16.6 10.85 L18.15 10.6 19.4 10.75 Q20.85 11.15 21.3 12.25 L21.6 14.35 21.6 14.85 19.3 15.1 M12.85 13.95 L13.0 22.8 10.5 23.0 10.5 18.1 10.45 11.25 12.85 11.15 12.85 13.95 M9.1 22.95 L6.6 23.15 6.65 16.85 6.6 6.7 9.0 6.55 8.95 11.15 9.1 22.95 M11.75 9.7 Q11.05 9.7 10.6 9.25 10.15 8.75 10.15 8.1 10.15 7.45 10.6 7.0 11.05 6.5 11.75 6.5 12.4 6.5 12.85 7.0 13.3 7.45 13.3 8.1 L12.85 9.25 Q12.4 9.7 11.75 9.7 M29.3 12.85 L27.1 13.05 27.1 18.4 27.1 18.75 Q27.1 20.65 28.4 20.65 L29.3 20.5 29.35 22.6 Q28.4 23.15 27.55 23.15 L26.85 23.05 Q25.6 22.75 25.15 21.7 24.65 20.65 24.65 18.5 L24.6 13.2 23.1 13.2 23.1 11.0 24.7 10.95 24.75 6.7 27.2 6.1 27.1 10.7 29.3 10.55 29.3 12.85" fill="#000000" fill-rule="evenodd" stroke="none"/>
    <path d="M0.0 41.95 L0.0 0.0 38.95 0.0 52.05 0.0 100.0 0.0 100.0 41.95 100.0 55.05 100.0 100.0 52.05 100.0 38.95 100.0 0.0 100.0 0.0 55.05 0.0 41.95" fill="none" stroke="#000000" stroke-linecap="round" stroke-linejoin="round" stroke-width="0.05"/>
  </g>
</svg>
